<?xml version="1.0" standalone="no"?>
<!DOCTYPE svg PUBLIC "-//W3C//DTD SVG 20010904//EN"
 "http://www.w3.org/TR/2001/REC-SVG-20010904/DTD/svg10.dtd">
<svg version="1.0" xmlns="http://www.w3.org/2000/svg"
 width="512.000000pt" height="512.000000pt" viewBox="0 0 512.000000 512.000000"
 preserveAspectRatio="xMidYMid meet">
<metadata>
Created by potrace 1.11, written by Peter Selinger 2001-2013
</metadata>
<g transform="translate(0.000000,512.000000) scale(0.100000,-0.100000)"
fill="#000000" stroke="none">
<path d="M3035 3873 c-147 -13 -300 -54 -447 -119 -210 -93 -318 -135 -375
-144 -34 -6 -424 -10 -931 -10 -765 0 -877 -2 -910 -15 -47 -20 -79 -50 -103
-97 -18 -36 -19 -72 -19 -906 l0 -868 26 -52 c20 -41 38 -59 78 -82 l51 -30
404 3 404 2 21 65 c101 314 438 452 727 299 108 -58 194 -161 239 -288 l26
-76 490 0 489 0 5 780 c3 429 7 781 8 783 1 1 294 2 651 2 619 0 652 1 713 20
130 40 188 109 188 222 0 98 -48 190 -153 293 -132 129 -281 195 -485 215 -97
9 -1002 12 -1097 3z m-2075 -779 c54 -32 60 -57 60 -231 0 -175 -5 -194 -59
-230 -32 -21 -44 -23 -188 -23 -167 0 -193 6 -232 56 -19 25 -21 40 -21 191 0
248 5 252 248 253 134 0 169 -3 192 -16z m1798 -4 c20 -13 41 -38 53 -66 18
-40 20 -63 17 -223 -3 -170 -4 -179 -28 -214 -45 -65 -56 -67 -467 -67 -350 0
-369 1 -409 21 -31 15 -48 32 -63 63 -19 38 -21 61 -21 217 0 196 8 225 69
266 34 23 35 23 425 23 375 0 392 -1 424 -20z"/>
<path d="M3365 2958 c-3 -7 -4 -326 -3 -708 l3 -695 176 -3 c196 -3 188 -5
208 68 33 116 143 250 250 304 237 120 517 46 661 -175 20 -31 45 -83 55 -115
22 -74 30 -84 67 -84 61 0 146 60 188 133 26 45 30 62 30 127 0 132 -30 179
-543 858 l-229 302 -429 0 c-335 0 -431 -3 -434 -12z m825 -383 c56 -80 107
-159 114 -176 18 -42 5 -97 -29 -126 -26 -23 -29 -23 -336 -23 l-309 0 0 235
0 235 230 0 229 0 101 -145z"/>
<path d="M1624 1831 c-54 -14 -135 -64 -173 -107 -163 -186 -116 -455 101
-570 69 -37 78 -39 163 -39 77 0 99 4 147 27 76 35 148 104 184 175 26 53 29
67 29 158 0 90 -3 106 -29 159 -37 76 -96 135 -170 171 -48 23 -75 29 -140 31
-45 2 -95 0 -112 -5z m181 -252 c64 -57 66 -151 4 -203 -73 -62 -170 -41 -215
46 -19 36 -18 72 3 115 22 47 66 73 125 73 39 0 54 -6 83 -31z"/>
<path d="M4145 1831 c-98 -26 -190 -103 -242 -203 -25 -48 -28 -63 -28 -153 0
-95 2 -103 34 -163 41 -76 104 -135 179 -170 48 -23 71 -27 147 -27 76 0 99 4
147 27 79 37 142 98 181 177 29 59 32 74 32 156 0 77 -4 98 -27 147 -36 76
-100 144 -172 180 -49 25 -75 31 -141 34 -44 2 -93 0 -110 -5z m162 -241 c88
-54 81 -197 -12 -236 -97 -40 -195 19 -195 119 0 110 113 175 207 117z"/>
</g>
</svg>
